<svg xmlns="http://www.w3.org/2000/svg" viewBox="0 0 32 32" fill="none">
  <rect width="32" height="32" fill="#0f172a"/>
  <path d="M 1.692,29 V 11.288 H 8.748 V 29 Z M 12.6,29 V 18.848 q 0,-0.9 -0.54,-1.404 -0.54,-0.54 -1.368,-0.54 -0.576,0 -1.044,0.252 -0.432,0.216 -0.684,0.648 -0.216,0.432 -0.216,1.044 L 6.012,17.84 q 0,-2.16 0.936,-3.708 0.972,-1.548 2.592,-2.376 1.62,-0.828 3.672,-0.828 1.8,0 3.24,0.864 1.476,0.864 2.34,2.412 0.864,1.512 0.864,3.6 V 29 Z m 10.908,0 V 18.848 q 0,-0.9 -0.54,-1.404 -0.54,-0.54 -1.368,-0.54 -0.576,0 -1.044,0.252 -0.432,0.216 -0.684,0.648 -0.216,0.432 -0.216,1.044 l -4.14,0.036 q 0,-2.484 0.972,-4.248 1.008,-1.8 2.772,-2.736 1.764,-0.972 4.032,-0.972 2.124,0 3.744,0.9 1.656,0.9 2.592,2.592 0.936,1.692 0.936,4.068 V 29 Z" fill="white"/>
  <circle cx="29" cy="27.5" r="1.5" fill="#22d3ee"/>
</svg>
