<?xml version="1.0" encoding="UTF-8"?>
<svg width="1408" height="768" viewBox="0 0 1408 768" xmlns="http://www.w3.org/2000/svg">
  <path id="3" d="M 441,328 C 441.333,327.333 441.667,326.667 442,326 C 442.099,323.750 442.199,321.500 442.298,319.250 C 442.986,303.663 460.207,268.347 480.335,241.244 C 490.523,227.526 516.323,201.727 530,191.583 C 562.830,167.233 599.322,152.544 635.812,148.994 C 641.140,148.476 653.064,148.040 662.309,148.026 C 673.214,148.009 678.922,147.649 678,146 C 680.583,146.627 683.167,147.254 685.750,147.881 C 690.013,148.915 697.775,150.757 703,151.975 C 743.433,161.398 787.042,190.389 813.334,225.323 C 829.312,246.553 840.832,272.824 846.634,301.265 C 849.024,312.980 849.342,316.854 849.411,335 C 849.478,352.557 849.164,357.112 847.219,366.728 C 838.913,407.800 816.421,443.280 783.751,466.850 C 774.312,473.660 775.590,474.488 788.548,469.956 C 799.672,466.066 812.411,459.453 826.033,450.500 C 840.440,441.031 861.790,419.697 871.946,404.622 C 886.100,383.612 896.694,358.471 901.486,334.521 C 904.247,320.718 906,305.980 906,296.560 C 906,292.974 906.697,288.298 907.549,286.168 C 908.401,284.038 909.076,281.779 909,280 C 909.265,280.332 909.531,280.664 909.796,280.996 C 910.305,281.633 912.003,281.273 914.508,279.996 C 916.661,278.898 919.227,278 920.211,278 C 921.195,278 922,277.325 922,275 C 922.190,275.322 922.381,275.643 922.572,275.965 C 922.886,276.495 924.979,277.958 927.222,279.215 C 934.438,283.258 935.244,286.004 934.651,304.500 C 933.221,349.085 918.243,391.149 890.444,428.649 C 882.642,439.174 859.514,462.248 849.044,469.954 C 825.120,487.561 795.540,500.591 768.376,505.489 C 723.233,513.628 674.224,501.046 640.049,472.541 C 614.226,451.003 599.664,425.704 596.044,396.092 C 595.479,391.467 594.800,387.467 594.536,387.203 C 593.691,386.358 592.020,391.941 590.488,400.726 C 588.554,411.816 588.569,434.270 590.518,445.444 C 595.330,473.040 609.007,499.012 629.513,519.496 C 641.442,531.413 654.434,540.517 671.500,548.923 C 697.857,561.905 721.679,567.402 751,567.270 C 799.437,567.052 848.742,545.295 886.496,507.478 C 910.026,483.909 925.367,461.005 940.207,427.290 C 944.435,417.684 947.680,415.010 955.115,415.004 C 959.776,415 963.815,417.152 966.818,421.239 C 967.543,422.226 968.556,422.801 970,422 C 969.667,422.849 969.333,423.698 969,424.547 C 968.450,425.948 968,428.446 968,430.098 C 968,431.750 966.146,437.467 963.880,442.801 C 937.212,505.578 886.363,556.622 826.500,580.705 C 790.644,595.130 759.587,598.695 716.600,593.319 C 713.060,592.876 711.881,593.024 713,595 C 709.917,594.025 706.833,593.051 703.750,592.076 C 698.662,590.468 689.832,587.704 684.127,585.932 C 672.387,582.286 647.986,570.512 637.500,563.433 C 617.671,550.047 598.510,530.954 585.990,512.105 C 579.897,502.932 570.512,483.403 567.196,473 C 560.546,452.136 557.752,427.452 559.908,408.612 C 562.334,387.406 566.088,374.567 575.435,355.500 C 587.020,331.868 602.671,313.930 625.436,298.193 C 628.067,296.374 629.974,294.640 629.674,294.340 C 628.675,293.341 616.016,298.134 605.381,303.537 C 554.475,329.403 522.192,375.979 514.500,434.656 C 509.176,475.271 518.695,520.937 539.655,555.342 C 559.967,588.682 589.049,616.099 625.500,636.271 C 638.113,643.251 649.263,647.918 669.500,654.689 C 674.833,656.473 680.167,658.259 685.500,660.043 C 682.682,659.856 679.864,659.668 677.046,659.481 C 667.399,658.840 654.142,656.141 639.553,651.847 C 575.331,632.946 527.172,593.713 500.418,538.500 C 490.335,517.691 485.314,494.627 484.296,464.435 C 483.374,437.094 486.340,415.816 494.479,391.351 C 521.269,310.829 595.343,256.203 673.500,259.334 C 697.030,260.277 716.899,265.348 738.500,275.924 C 778.538,295.527 804.606,328.534 811.077,367.822 C 811.682,371.495 812.420,375.625 812.716,377 C 813.254,379.499 813.254,379.499 814.586,376.357 C 816.812,371.105 819.845,354.116 820.541,343 C 821.229,331.999 820.007,317.024 817.365,304.083 C 813.619,285.735 803.239,261.852 792.031,245.788 C 778.115,225.844 756.600,207.521 731,193.812 C 686.055,169.745 626.421,170.407 577.027,195.524 C 533.769,217.521 499.134,254.274 478.086,300.517 C 474.836,307.658 471.383,315.975 470.414,319 C 469.319,322.419 467.249,325.919 464.944,328.250 C 461.539,331.693 460.777,332 455.652,332 C 450.806,332 449.592,331.581 446.452,328.824 C 443.828,326.520 442.584,325.971 441,328 ZM 507.827,539.231 C 505.172,539.231 503.008,539.516 503.017,539.865 C 503.069,541.849 512.705,557.980 519.227,567 C 529.443,581.130 535.920,588.421 548.180,599.593 C 565.239,615.138 579.928,624.940 603.500,636.510 C 617.658,643.459 634.340,649.286 653.732,654.057 C 667.931,657.550 672.890,657.544 662.500,654.047 C 616.106,638.430 574.985,608.684 548.389,571.500 C 539.462,559.019 534.538,550.710 529.512,539.650 C 527.869,536.033 526.225,532.417 524.582,528.800 C 523.608,530.014 522.634,531.228 521.660,532.442 C 517.822,537.226 513.738,539.231 507.827,539.231 ZM 722,301 C 720.417,300.467 718.833,299.933 717.250,299.400 C 711.257,297.382 690.484,298.026 681.500,300.509 C 665.568,304.912 648.336,315.820 638.435,327.769 C 627.971,340.397 622.773,351.649 618,372 C 618.132,376.750 618.263,381.500 618.395,386.250 C 618.849,402.628 620.665,410.400 626.962,422.925 C 631.443,431.837 640.688,443.867 647,449 C 648.250,450.128 649.500,451.257 650.750,452.385 C 659.355,460.153 678.074,468 688,468 C 689.417,468.373 690.833,468.747 692.250,469.120 C 697.849,470.596 718.669,469.665 726.500,467.587 C 735.567,465.182 751.684,456.812 759.137,450.639 C 772.872,439.263 783.962,421.196 788.039,403.551 C 789.952,395.273 790.183,392.119 789.709,380.723 C 789.398,373.250 788.438,364.891 787.502,361.500 C 783.158,345.764 769.410,324.235 761,320 C 759.551,318.530 758.102,317.060 756.653,315.590 C 748.906,307.730 727.748,298.822 722,301 Z" fill="#22d3ee" opacity="0.7" stroke="none" />
  <path id="9" d="M 441,328 C 442.584,325.971 443.828,326.520 446.452,328.824 C 449.592,331.581 450.806,332 455.652,332 C 460.777,332 461.539,331.693 464.944,328.250 C 467.249,325.919 469.319,322.419 470.414,319 C 471.383,315.975 474.836,307.658 478.086,300.517 C 499.134,254.274 533.769,217.521 577.027,195.524 C 626.421,170.407 686.055,169.745 731,193.812 C 756.600,207.521 778.115,225.844 792.031,245.788 C 803.239,261.852 813.619,285.735 817.365,304.083 C 820.007,317.024 821.229,331.999 820.541,343 C 819.845,354.116 816.812,371.105 814.586,376.357 C 813.254,379.499 813.254,379.499 812.716,377 C 812.420,375.625 811.682,371.495 811.077,367.822 C 804.606,328.534 778.538,295.527 738.500,275.924 C 716.899,265.348 697.030,260.277 673.500,259.334 C 595.343,256.203 521.269,310.829 494.479,391.351 C 486.340,415.816 483.374,437.094 484.296,464.435 C 485.314,494.627 490.335,517.691 500.418,538.500 C 527.172,593.713 575.331,632.946 639.553,651.847 C 654.142,656.141 667.399,658.840 677.046,659.481 C 679.864,659.668 682.682,659.856 685.500,660.043 C 680.167,658.259 674.833,656.473 669.500,654.689 C 649.263,647.918 638.113,643.251 625.500,636.271 C 589.049,616.099 559.967,588.682 539.655,555.342 C 518.695,520.937 509.176,475.271 514.500,434.656 C 522.192,375.979 554.475,329.403 605.381,303.537 C 616.016,298.134 628.675,293.341 629.674,294.340 C 629.974,294.640 628.067,296.374 625.436,298.193 C 602.671,313.930 587.020,331.868 575.435,355.500 C 566.088,374.567 562.334,387.406 559.908,408.612 C 557.752,427.452 560.546,452.136 567.196,473 C 570.512,483.403 579.897,502.932 585.990,512.105 C 598.510,530.954 617.671,550.047 637.500,563.433 C 647.986,570.512 672.387,582.286 684.127,585.932 C 689.832,587.704 698.662,590.468 703.750,592.076 C 706.833,593.051 709.917,594.025 713,595 C 735.402,603.087 754.657,606.817 778.500,607.689 C 832.578,609.666 883.885,589.480 924.886,550.094 C 932.880,542.415 937.401,540.290 943.365,541.409 C 950.859,542.815 956.434,552.271 954.188,559.766 C 951.947,567.246 924.934,598.507 906,615.531 C 860.093,656.809 812.745,680.551 757.500,689.993 C 668.786,705.155 574.250,674.374 508.938,609.062 C 465.877,566.001 439.035,512.965 429.898,452.893 C 428.146,441.374 427.704,434.008 427.685,416 C 427.653,385.830 430.458,365.315 438.518,336.785 C 439.345,333.857 440.173,330.928 441,328 Z" fill="#22d3ee" opacity="0.45" stroke="none" />
  <path id="9" d="M 909,280 C 909.076,281.779 908.401,284.038 907.549,286.168 C 906.697,288.298 906,292.974 906,296.560 C 906,305.980 904.247,320.718 901.486,334.521 C 896.694,358.471 886.100,383.612 871.946,404.622 C 861.790,419.697 840.440,441.031 826.033,450.500 C 812.411,459.453 799.672,466.066 788.548,469.956 C 775.590,474.488 774.312,473.660 783.751,466.850 C 816.421,443.280 838.913,407.800 847.219,366.728 C 849.164,357.112 849.478,352.557 849.411,335 C 849.342,316.854 849.024,312.980 846.634,301.265 C 840.832,272.824 829.312,246.553 813.334,225.323 C 787.042,190.389 743.433,161.398 703,151.975 C 697.775,150.757 690.013,148.915 685.750,147.881 C 683.167,147.254 680.583,146.627 678,146 C 652.875,140.395 642.254,139.039 623.301,139.018 C 575.228,138.964 533.664,153.448 494.618,183.861 C 486.996,189.798 486.541,190 480.829,190 C 475.361,190 474.617,189.715 470.807,186.161 C 467.147,182.747 466.640,181.713 466.235,176.825 C 465.625,169.474 466.867,167.352 478.149,156.466 C 526.252,110.051 589.320,85 658.070,85 C 688.824,85 714.540,89.104 743,98.554 C 781.510,111.341 815.901,132.807 844.095,161.658 C 857.932,175.817 864.403,183.692 873.401,197.318 C 887.305,218.374 897.270,240.167 905.009,266.447 C 906.339,270.965 907.670,275.482 909,280 Z" fill="#22d3ee" opacity="0.45" stroke="none" />
  <path id="9" d="M 970,422 C 968.556,422.801 967.543,422.226 966.818,421.239 C 963.815,417.152 959.776,415 955.115,415.004 C 947.680,415.010 944.435,417.684 940.207,427.290 C 925.367,461.005 910.026,483.909 886.496,507.478 C 848.742,545.295 799.437,567.052 751,567.270 C 721.679,567.402 697.857,561.905 671.500,548.923 C 654.434,540.517 641.442,531.413 629.513,519.496 C 609.007,499.012 595.330,473.040 590.518,445.444 C 588.569,434.270 588.554,411.816 590.488,400.726 C 592.020,391.941 593.691,386.358 594.536,387.203 C 594.800,387.467 595.479,391.467 596.044,396.092 C 599.664,425.704 614.226,451.003 640.049,472.541 C 674.224,501.046 723.233,513.628 768.376,505.489 C 795.540,500.591 825.120,487.561 849.044,469.954 C 859.514,462.248 882.642,439.174 890.444,428.649 C 918.243,391.149 933.221,349.085 934.651,304.500 C 935.244,286.004 934.438,283.258 927.222,279.215 C 924.979,277.958 922.886,276.495 922.572,275.965 C 922.381,275.643 922.190,275.322 922,275 C 911.830,232.426 906.563,221.206 881.750,189.245 C 879.556,186.419 879,184.650 879,180.499 C 879,167.920 891.531,161.047 901.478,168.170 C 909.857,174.170 933.578,202.753 943.718,219.067 C 954.121,235.804 965.091,261.092 971.020,282 C 983.337,325.434 983.914,363.923 972.935,409.750 C 971.957,413.833 970.978,417.917 970,422 Z" fill="#22d3ee" opacity="0.45" stroke="none" />
  <path id="9" d="M 761,320 C 769.410,324.235 783.158,345.764 787.502,361.500 C 788.438,364.891 789.398,373.250 789.709,380.723 C 790.183,392.119 789.952,395.273 788.039,403.551 C 783.962,421.196 772.872,439.263 759.137,450.639 C 751.684,456.812 735.567,465.182 726.500,467.587 C 718.669,469.665 697.849,470.596 692.250,469.120 C 690.833,468.747 689.417,468.373 688,468 C 680.249,461.359 678,457.018 678,448.700 C 678,443.589 678.606,441.106 681.049,436.217 C 684.985,428.341 696.683,417.233 709.213,409.475 C 714.321,406.313 720.774,402.266 723.554,400.483 C 750.517,383.184 766.331,352.927 762.093,326.750 C 761.729,324.500 761.364,322.250 761,320 Z" fill="#22d3ee" opacity="0.45" stroke="none" />
  <path id="9" d="M 618,372 C 622.773,351.649 627.971,340.397 638.435,327.769 C 648.336,315.820 665.568,304.912 681.500,300.509 C 690.484,298.026 711.257,297.382 717.250,299.400 C 718.833,299.933 720.417,300.467 722,301 C 725.931,305.836 727.809,308.648 728.708,310.370 C 731.135,315.016 730.794,324.513 728.002,330.040 C 721.909,342.102 715.268,348.194 692.526,362.587 C 672.502,375.260 660.211,387.587 652.731,402.500 C 647.147,413.632 644.586,427.761 646.161,438.737 C 646.695,442.457 647.102,446.288 647.066,447.250 C 647.044,447.833 647.022,448.417 647,449 C 640.688,443.867 631.443,431.837 626.962,422.925 C 620.665,410.400 618.849,402.628 618.395,386.250 C 618.263,381.500 618.132,376.750 618,372 Z" fill="#22d3ee" opacity="0.45" stroke="none" />
  <path id="8" d="M 722,301 C 727.748,298.822 748.906,307.730 756.653,315.590 C 758.102,317.060 759.551,318.530 761,320 C 761.364,322.250 761.729,324.500 762.093,326.750 C 766.331,352.927 750.517,383.184 723.554,400.483 C 720.774,402.266 714.321,406.313 709.213,409.475 C 696.683,417.233 684.985,428.341 681.049,436.217 C 678.606,441.106 678,443.589 678,448.700 C 678,457.018 680.249,461.359 688,468 C 678.074,468 659.355,460.153 650.750,452.385 C 649.500,451.257 648.250,450.128 647,449 C 647.022,448.417 647.044,447.833 647.066,447.250 C 647.102,446.288 646.695,442.457 646.161,438.737 C 644.586,427.761 647.147,413.632 652.731,402.500 C 660.211,387.587 672.502,375.260 692.526,362.587 C 715.268,348.194 721.909,342.102 728.002,330.040 C 730.794,324.513 731.135,315.016 728.708,310.370 C 727.809,308.648 725.931,305.836 722,301 Z" fill="#22d3ee" opacity="0.9" stroke="none" />
  <path id="5" d="M 507.827,539.231 C 513.738,539.231 517.822,537.226 521.660,532.442 C 522.634,531.228 523.608,530.014 524.582,528.800 C 526.225,532.417 527.869,536.033 529.512,539.650 C 534.538,550.710 539.462,559.019 548.389,571.500 C 574.985,608.684 616.106,638.430 662.500,654.047 C 672.890,657.544 667.931,657.550 653.732,654.057 C 634.340,649.286 617.658,643.459 603.500,636.510 C 579.928,624.940 565.239,615.138 548.180,599.593 C 535.920,588.421 529.443,581.130 519.227,567 C 512.705,557.980 503.069,541.849 503.017,539.865 C 503.008,539.516 505.172,539.231 507.827,539.231 Z" fill="#22d3ee" stroke="none" />
</svg>