<?xml version='1.0' encoding='utf-8'?>
<svg xmlns="http://www.w3.org/2000/svg" viewBox="0 0 1080 1080" width="1080" height="1080" style="width: 100%; height: 100%; transform: translate3d(0,0,0);" preserveAspectRatio="xMidYMid meet"><defs><clipPath id="__lottie_element_2"><rect width="1080" height="1080" x="0" y="0" /></clipPath><clipPath id="__lottie_element_4"><path d="M0,0 L1080,0 L1080,1080 L0,1080z" /></clipPath><linearGradient id="__lottie_element_11" spreadMethod="pad" gradientUnits="userSpaceOnUse" x1="-166" y1="148" x2="86" y2="146"><stop offset="0%" stop-color="rgb(235,244,252)" /><stop offset="65%" stop-color="rgb(221,225,230)" /><stop offset="100%" stop-color="rgb(207,207,207)" /></linearGradient><linearGradient id="__lottie_element_14" spreadMethod="pad" gradientUnits="userSpaceOnUse" x1="-235.68800354003906" y1="173.87399291992188" x2="-283.1210021972656" y2="160.69900512695312"><stop offset="0%" stop-color="rgb(235,244,252)" /><stop offset="65%" stop-color="rgb(221,225,230)" /><stop offset="100%" stop-color="rgb(207,207,207)" /></linearGradient><linearGradient id="__lottie_element_18" spreadMethod="pad" gradientUnits="userSpaceOnUse" x1="-271.5360107421875" y1="175.1510009765625" x2="-227.43800354003906" y2="178.62100219726562"><stop offset="0%" stop-color="rgb(235,244,252)" /><stop offset="65%" stop-color="rgb(221,225,230)" /><stop offset="100%" stop-color="rgb(207,207,207)" /></linearGradient><linearGradient id="__lottie_element_24" spreadMethod="pad" gradientUnits="userSpaceOnUse" x1="-296" y1="-60" x2="198" y2="-58"><stop offset="0%" stop-color="rgb(235,244,252)" /><stop offset="65%" stop-color="rgb(221,225,230)" /><stop offset="100%" stop-color="rgb(207,207,207)" /></linearGradient></defs><g clip-path="url(#__lottie_element_2)"><g clip-path="url(#__lottie_element_4)" style="display: block;" transform="matrix(1,0,0,1,28,0)" opacity="1" id="bot"><g style="display: block;" transform="matrix(1,0,0,1,541,539)" opacity="0.6" id="bot-shadow"><g opacity="1" transform="matrix(1,0,0,1,-17.5,380.5)"><path fill="rgb(195,195,195)" fill-opacity="1" d=" M0,-29.5 C68.7115478515625,-29.5 124.5,-16.281049728393555 124.5,0 C124.5,16.281049728393555 68.7115478515625,29.5 0,29.5 C-68.7115478515625,29.5 -124.5,16.281049728393555 -124.5,0 C-124.5,-16.281049728393555 -68.7115478515625,-29.5 0,-29.5z" /><path stroke-linecap="butt" stroke-linejoin="miter" fill-opacity="0" stroke-miterlimit="4" stroke="rgb(255,255,255)" stroke-opacity="1" stroke-width="0" d=" M0,-29.5 C68.7115478515625,-29.5 124.5,-16.281049728393555 124.5,0 C124.5,16.281049728393555 68.7115478515625,29.5 0,29.5 C-68.7115478515625,29.5 -124.5,16.281049728393555 -124.5,0 C-124.5,-16.281049728393555 -68.7115478515625,-29.5 0,-29.5z" /></g></g><g id="bot-character"><g id="bot-ear-r-wrap"><g style="display: block;" transform="matrix(1,0,0,1,540,540)" opacity="1" id="bot-ear-r"><g opacity="1" transform="matrix(1,0,0,1,-305.5,-118)"><path fill="rgb(225,225,225)" fill-opacity="1" d=" M0,-69 C30.630449295043945,-69 55.5,-38.08110046386719 55.5,0 C55.5,38.08110046386719 30.630449295043945,69 0,69 C-30.630449295043945,69 -55.5,38.08110046386719 -55.5,0 C-55.5,-38.08110046386719 -30.630449295043945,-69 0,-69z" /><path stroke-linecap="butt" stroke-linejoin="miter" fill-opacity="0" stroke-miterlimit="4" stroke="rgb(255,255,255)" stroke-opacity="1" stroke-width="0" d=" M0,-69 C30.630449295043945,-69 55.5,-38.08110046386719 55.5,0 C55.5,38.08110046386719 30.630449295043945,69 0,69 C-30.630449295043945,69 -55.5,38.08110046386719 -55.5,0 C-55.5,-38.08110046386719 -30.630449295043945,-69 0,-69z" /></g></g></g><g id="bot-ear-l-wrap"><g style="display: block;" transform="matrix(1,0,0,1,1109,540)" opacity="1" id="bot-ear-l"><g opacity="1" transform="matrix(1,0,0,1,-305.5,-118)"><path fill="rgb(225,225,225)" fill-opacity="1" d=" M0,-69 C30.630449295043945,-69 55.5,-38.08110046386719 55.5,0 C55.5,38.08110046386719 30.630449295043945,69 0,69 C-30.630449295043945,69 -55.5,38.08110046386719 -55.5,0 C-55.5,-38.08110046386719 -30.630449295043945,-69 0,-69z" /><path stroke-linecap="butt" stroke-linejoin="miter" fill-opacity="0" stroke-miterlimit="4" stroke="rgb(255,255,255)" stroke-opacity="1" stroke-width="0" d=" M0,-69 C30.630449295043945,-69 55.5,-38.08110046386719 55.5,0 C55.5,38.08110046386719 30.630449295043945,69 0,69 C-30.630449295043945,69 -55.5,38.08110046386719 -55.5,0 C-55.5,-38.08110046386719 -30.630449295043945,-69 0,-69z" /></g></g></g><g id="bot-body-wrap"><g style="display: block;" transform="matrix(1,0,0,1,540,540)" opacity="1" id="bot-body"><g opacity="1" transform="matrix(1,0,0,1,0,0)"><path fill="url(#__lottie_element_11)" fill-opacity="1" d=" M-27,31 C-39.374000549316406,31 -164,20 -179.67799377441406,102.947998046875 C-187.85699462890625,146.2209930419922 -182,234 -132.2689971923828,283.3590087890625 C-93.71399688720703,321.625 -38.150001525878906,319.7080078125 -25,320 C-11.456000328063965,320.3009948730469 53.75400161743164,322.5979919433594 91.48300170898438,284.49700927734375 C137.322998046875,238.20599365234375 148,146 137.74200439453125,101.15499877929688 C122.56099700927734,34.78900146484375 24,31 -27,31z" /><path stroke-linecap="butt" stroke-linejoin="miter" fill-opacity="0" stroke-miterlimit="4" stroke="rgb(255,255,255)" stroke-opacity="1" stroke-width="0" d=" M-27,31 C-39.374000549316406,31 -164,20 -179.67799377441406,102.947998046875 C-187.85699462890625,146.2209930419922 -182,234 -132.2689971923828,283.3590087890625 C-93.71399688720703,321.625 -38.150001525878906,319.7080078125 -25,320 C-11.456000328063965,320.3009948730469 53.75400161743164,322.5979919433594 91.48300170898438,284.49700927734375 C137.322998046875,238.20599365234375 148,146 137.74200439453125,101.15499877929688 C122.56099700927734,34.78900146484375 24,31 -27,31z" /></g><g opacity="1" transform="matrix(1,0,0,1,-23.5,68.5)"><path fill="rgb(208,208,208)" fill-opacity="1" d=" M0,-32.5 C62.64065170288086,-32.5 113.5,-17.936750411987305 113.5,0 C113.5,17.936750411987305 62.64065170288086,32.5 0,32.5 C-62.64065170288086,32.5 -113.5,17.936750411987305 -113.5,0 C-113.5,-17.936750411987305 -62.64065170288086,-32.5 0,-32.5z" /><path stroke-linecap="butt" stroke-linejoin="miter" fill-opacity="0" stroke-miterlimit="4" stroke="rgb(147,147,147)" stroke-opacity="1" stroke-width="1" d=" M0,-32.5 C62.64065170288086,-32.5 113.5,-17.936750411987305 113.5,0 C113.5,17.936750411987305 62.64065170288086,32.5 0,32.5 C-62.64065170288086,32.5 -113.5,17.936750411987305 -113.5,0 C-113.5,-17.936750411987305 -62.64065170288086,-32.5 0,-32.5z" /></g></g></g><g id="bot-visor-wrap"><g style="display: block;" transform="matrix(1,0,0,1,540,540)" opacity="1" id="bot-visor"><g opacity="1" transform="matrix(1,0,0,1,0,0)"><path fill="url(#__lottie_element_24)" fill-opacity="1" d=" M242,-226 C124,-408 -206,-374 -284,-218 C-312.42498779296875,-161.1490020751953 -360,-6 -178,14 C-143.68099975585938,17.770999908447266 140,16 140,16 C140,16 214.56300354003906,11.970999717712402 250.406005859375,-40.457000732421875 C277.4010009765625,-79.94400024414062 284.02099609375,-161.18800354003906 242,-226z" /><path stroke-linecap="butt" stroke-linejoin="miter" fill-opacity="0" stroke-miterlimit="4" stroke="rgb(255,255,255)" stroke-opacity="1" stroke-width="0" d=" M242,-226 C124,-408 -206,-374 -284,-218 C-312.42498779296875,-161.1490020751953 -360,-6 -178,14 C-143.68099975585938,17.770999908447266 140,16 140,16 C140,16 214.56300354003906,11.970999717712402 250.406005859375,-40.457000732421875 C277.4010009765625,-79.94400024414062 284.02099609375,-161.18800354003906 242,-226z" /></g></g></g><g id="bot-head-wrap"><g style="display: block;" transform="matrix(1,0,0,1,540,540)" opacity="1" id="bot-head"><g opacity="1" transform="matrix(1.027590036392212,0,0,1,-16.5,-119)"><path fill="rgb(33,33,33)" fill-opacity="1" d=" M220.5,-17 C220.5,-17 220.5,17 220.5,17 C220.5,52.32160186767578 191.82159423828125,81 156.5,81 C156.5,81 -156.5,81 -156.5,81 C-191.82159423828125,81 -220.5,52.32160186767578 -220.5,17 C-220.5,17 -220.5,-17 -220.5,-17 C-220.5,-52.32160186767578 -191.82159423828125,-81 -156.5,-81 C-156.5,-81 156.5,-81 156.5,-81 C191.82159423828125,-81 220.5,-52.32160186767578 220.5,-17z" /><path stroke-linecap="butt" stroke-linejoin="miter" fill-opacity="0" stroke-miterlimit="4" stroke="rgb(255,255,255)" stroke-opacity="1" stroke-width="0" d=" M220.5,-17 C220.5,-17 220.5,17 220.5,17 C220.5,52.32160186767578 191.82159423828125,81 156.5,81 C156.5,81 -156.5,81 -156.5,81 C-191.82159423828125,81 -220.5,52.32160186767578 -220.5,17 C-220.5,17 -220.5,-17 -220.5,-17 C-220.5,-52.32160186767578 -191.82159423828125,-81 -156.5,-81 C-156.5,-81 156.5,-81 156.5,-81 C191.82159423828125,-81 220.5,-52.32160186767578 220.5,-17z" /></g><g opacity="1" transform="matrix(1,0,0,1,0,0)"><path fill="rgb(58,58,58)" fill-opacity="1" d=" M9,-199.75 C7.617000102996826,-194.218994140625 15.5,-94.5 -65,-40.5 C-65,-40.5 158,-40.5 158,-40.5 C158,-40.5 207,-38.5 210,-121 C211.50799560546875,-162.4759979248047 195.75,-198.5 152.25,-199.5 C108.75,-200.5 9,-199.25 9,-199.75z" /><path stroke-linecap="butt" stroke-linejoin="miter" fill-opacity="0" stroke-miterlimit="4" stroke="rgb(255,255,255)" stroke-opacity="1" stroke-width="0" d=" M9,-199.75 C7.617000102996826,-194.218994140625 15.5,-94.5 -65,-40.5 C-65,-40.5 158,-40.5 158,-40.5 C158,-40.5 207,-38.5 210,-121 C211.50799560546875,-162.4759979248047 195.75,-198.5 152.25,-199.5 C108.75,-200.5 9,-199.25 9,-199.75z" /></g></g></g><g id="bot-eye-r-wrap"><g style="display: block;" transform="matrix(1,0,0,1,540,540)" opacity="1" id="bot-eye-r"><g opacity="1" transform="matrix(1,0,0,1,-158,-120.5)"><path fill="rgb(125,138,255)" fill-opacity="1" d=" M18,-28.5 C18,-28.5 18,28.5 18,28.5 C18,38.434200286865234 9.934200286865234,46.5 0,46.5 C0,46.5 0,46.5 0,46.5 C-9.934200286865234,46.5 -18,38.434200286865234 -18,28.5 C-18,28.5 -18,-28.5 -18,-28.5 C-18,-38.434200286865234 -9.934200286865234,-46.5 0,-46.5 C0,-46.5 0,-46.5 0,-46.5 C9.934200286865234,-46.5 18,-38.434200286865234 18,-28.5z" /><path stroke-linecap="butt" stroke-linejoin="miter" fill-opacity="0" stroke-miterlimit="4" stroke="rgb(255,255,255)" stroke-opacity="1" stroke-width="0" d=" M18,-28.5 C18,-28.5 18,28.5 18,28.5 C18,38.434200286865234 9.934200286865234,46.5 0,46.5 C0,46.5 0,46.5 0,46.5 C-9.934200286865234,46.5 -18,38.434200286865234 -18,28.5 C-18,28.5 -18,-28.5 -18,-28.5 C-18,-38.434200286865234 -9.934200286865234,-46.5 0,-46.5 C0,-46.5 0,-46.5 0,-46.5 C9.934200286865234,-46.5 18,-38.434200286865234 18,-28.5z" /></g></g></g><g id="bot-eye-l-wrap"><g style="display: block;" transform="matrix(1,0,0,1,818,540)" opacity="1" id="bot-eye-l"><g opacity="1" transform="matrix(1,0,0,1,-158,-120.5)"><path fill="rgb(125,138,255)" fill-opacity="1" d=" M18,-28.5 C18,-28.5 18,28.5 18,28.5 C18,38.434200286865234 9.934200286865234,46.5 0,46.5 C0,46.5 0,46.5 0,46.5 C-9.934200286865234,46.5 -18,38.434200286865234 -18,28.5 C-18,28.5 -18,-28.5 -18,-28.5 C-18,-38.434200286865234 -9.934200286865234,-46.5 0,-46.5 C0,-46.5 0,-46.5 0,-46.5 C9.934200286865234,-46.5 18,-38.434200286865234 18,-28.5z" /><path stroke-linecap="butt" stroke-linejoin="miter" fill-opacity="0" stroke-miterlimit="4" stroke="rgb(255,255,255)" stroke-opacity="1" stroke-width="0" d=" M18,-28.5 C18,-28.5 18,28.5 18,28.5 C18,38.434200286865234 9.934200286865234,46.5 0,46.5 C0,46.5 0,46.5 0,46.5 C-9.934200286865234,46.5 -18,38.434200286865234 -18,28.5 C-18,28.5 -18,-28.5 -18,-28.5 C-18,-38.434200286865234 -9.934200286865234,-46.5 0,-46.5 C0,-46.5 0,-46.5 0,-46.5 C9.934200286865234,-46.5 18,-38.434200286865234 18,-28.5z" /></g></g></g><g id="bot-hand-r-wrap"><g style="display: block;" transform="matrix(1,0,0,1,540,540)" opacity="1" id="bot-hand-r"><g opacity="1" transform="matrix(1,0,0,1,0,0)"><path fill="url(#__lottie_element_18)" fill-opacity="1" d=" M-242.5,83.5 C-301.5,156.5 -281,244 -273,271 C-268.50299072265625,286.177001953125 -248.98599243164062,291.4230041503906 -238.26499938964844,285.2829895019531 C-229.91299438476562,280.5 -229.4550018310547,266.25299072265625 -229,261 C-220,157 -205,108 -201,97 C-199.13699340820312,91.87699890136719 -201.5330047607422,79.1520004272461 -210.35499572753906,75.63600158691406 C-220.4759979248047,71.60199737548828 -237.6300048828125,77.4749984741211 -242.5,83.5z" /><path stroke-linecap="butt" stroke-linejoin="miter" fill-opacity="0" stroke-miterlimit="4" stroke="rgb(255,255,255)" stroke-opacity="1" stroke-width="0" d=" M-242.5,83.5 C-301.5,156.5 -281,244 -273,271 C-268.50299072265625,286.177001953125 -248.98599243164062,291.4230041503906 -238.26499938964844,285.2829895019531 C-229.91299438476562,280.5 -229.4550018310547,266.25299072265625 -229,261 C-220,157 -205,108 -201,97 C-199.13699340820312,91.87699890136719 -201.5330047607422,79.1520004272461 -210.35499572753906,75.63600158691406 C-220.4759979248047,71.60199737548828 -237.6300048828125,77.4749984741211 -242.5,83.5z" /></g></g></g><g id="bot-hand-l-wrap"><g style="display: block;" transform="matrix(-0.9848077297210693,-0.1736481785774231,0.1736481785774231,-0.9848077297210693,485.43292236328125,686.1575927734375)" opacity="1" id="bot-hand-l"><g opacity="1" transform="matrix(1,0,0,1,0,0)"><path fill="url(#__lottie_element_14)" fill-opacity="1" d=" M-242.5,83.5 C-301.5,156.5 -281,244 -273,271 C-268.50299072265625,286.177001953125 -248.98599243164062,291.4230041503906 -238.26499938964844,285.2829895019531 C-229.91299438476562,280.5 -229.4550018310547,266.25299072265625 -229,261 C-220,157 -205,108 -201,97 C-199.13699340820312,91.87699890136719 -201.5330047607422,79.1520004272461 -210.35499572753906,75.63600158691406 C-220.4759979248047,71.60199737548828 -237.6300048828125,77.4749984741211 -242.5,83.5z" /><path stroke-linecap="butt" stroke-linejoin="miter" fill-opacity="0" stroke-miterlimit="4" stroke="rgb(255,255,255)" stroke-opacity="1" stroke-width="0" d=" M-242.5,83.5 C-301.5,156.5 -281,244 -273,271 C-268.50299072265625,286.177001953125 -248.98599243164062,291.4230041503906 -238.26499938964844,285.2829895019531 C-229.91299438476562,280.5 -229.4550018310547,266.25299072265625 -229,261 C-220,157 -205,108 -201,97 C-199.13699340820312,91.87699890136719 -201.5330047607422,79.1520004272461 -210.35499572753906,75.63600158691406 C-220.4759979248047,71.60199737548828 -237.6300048828125,77.4749984741211 -242.5,83.5z" /></g></g></g></g></g></g></svg>